# xmcd
#
# Track frame offsets:
#        150
#        16600
#        33660
#        46532
#        64202
#        74317
#        91820
#        111762
#
# Disc length: 1873 seconds
#
# Revision: 0
# Processed by: cddbd v1.5.1PL0 Copyright (c) Steve Scherf et al.
# Submitted via: ExactAudioCopy v0.95a3
#
DISCID=5b074f08
DTITLE=Boo Radleys - Lazarus
DYEAR=1900
DGENRE=Rock
TTITLE0=Lazarus (7"Edit)
TTITLE1=At the Sound of Speed
TTITLE2=Let Me Be Your Faith
TTITLE3=Petroleum
TTITLE4=Buffalo Bill
TTITLE5=Boo! Forever
TTITLE6=Sunfly II, Walking with the Kings
TTITLE7=Lazarus
EXTD=
EXTT0=
EXTT1=
EXTT2=
EXTT3=
EXTT4=
EXTT5=
EXTT6=
EXTT7=
PLAYORDER=
